<?xml version="1.0" encoding="UTF-8"?>
<svg id="Layer_1" data-name="Layer 1" xmlns="http://www.w3.org/2000/svg" viewBox="16 0 60 54" style="float:left; width:auto;">
    <defs>
        <style>
            .cls-1 {
            fill: #6e777a;
            stroke-width: 0px;
            }
        </style>
    </defs>
    <g>
        <g>
            <path class="cls-1" d="m69.7,29.58l-.14-.02-.38-1.05c.18-.23.27-.6,0-.79-.37-.15-1.41-1.36-1.72-.58-.13.05-.96.1-1.02.25-.39-.64-.73-1.32-.97-2.07.16-.88,2.43-1.97,2.43-1.97,0,0-.64-.95-.9-1.48-.11.26-.22.15-.47.26,1.26-2.29,1.53-5.3-.14-7.46-.17-.37-.09-.87-.26-1.24-.29-.39-.49-1.16-1-1.24,0,.68-.07,1.34.25,1.97.34.44-.47.81-.72.46.48-.06.56-.16.4-.43-2.08-.48-3.25,1.02-5.23,1.25-.17,0-.33.06-.43.23-1.22,1.68,1.52.53,1.76,1.65-.46.39-.52.13-.95.02-.62.02-1.22.22-.45.76-.47.76-.45,1.02-1.41,1.09.42.6.33,1.46.43,2.14-.68.13-1.15.47-1.16,1.21-.31.07-.64-.09-.86.25-.43-.36-.92-.43-1.44-.44-.25-.19-.86-.64-1.51-.98.13-.49.25-.96.37-1.39.19-.12.88-.57,1.06-.69-.09-.19-.45-.94-.55-1.14,1.23-4.31,1.63-4.55,2.25-4.65l.03-.12-2.27-.74-.04.15c.57.42.76,1.13.5,1.96-.61-.27-.95-.85-.89-1.38-.01,0-.15-.04-.15-.04l-.76,2.57s.11.03.12.04c.3-.44.82-.69,1.42-.59-.7,2.28-3.86,1.57-3.3-.37.4-.8,1.17-.29.8.55,1.77-.63.73-3.24-.79-1.69.5-1.05.79-1.87.16-2.89-.82.54-1.03,1.51-.87,2.8-1-2.34-2.75.07-1.33,1.29-.26-1.73,1.84-.59.42.81-1.35.98-3.02-.15-3.06-1.87.78.07,1.38.54,1.46,1.14.01,0,.14,0,.14,0l.1-2.94s-.16,0-.18,0c-.12.6-.76,1.1-1.56,1.12.05-.91.56-1.61,1.22-1.73v-.17h-3.33v.17c.66.12,1.17.82,1.22,1.73-.8-.02-1.44-.52-1.56-1.12-.01,0-.18,0-.18,0l.1,2.94s.13,0,.14,0c.08-.59.68-1.07,1.46-1.14-.05,1.72-1.71,2.85-3.06,1.87-1.42-1.4.68-2.54.42-.81,1.42-1.22-.33-3.62-1.33-1.29.16-1.29-.05-2.26-.87-2.8-.63,1.01-.34,1.84.16,2.89-1.52-1.55-2.56,1.05-.79,1.69-.37-.84.4-1.35.8-.55.57,1.94-2.6,2.65-3.3.37.6-.1,1.12.15,1.42.59.01,0,.12-.04.12-.04l-.76-2.57s-.14.04-.15.04c.07.52-.28,1.11-.89,1.38-.26-.83-.07-1.53.5-1.96l-.04-.15-2.27.74.03.12c.62.09,1.02.34,2.25,4.65-.1.21-.46.95-.55,1.14.17.11.87.57,1.06.69.11.4.22.82.34,1.26,0,0,0,0,.01,0,0,.02,0,.02-.01,0-3.05,1.46-2.36,2.45-4.71,2.16-.21.5-.41.99-.89,1.33-.09-.76-.42-1.35-.86-1.89-.22-.26-.51.03-.84.05-.64,1.42-1.08.14-2.2.88.04.66.14,1.32.5,1.93-.84-.06-1.53-.29-2.08-.69-2.5,2.85-5.11,5.59-7.24,8.72-1.14,1.54-4.19.64-3.39-1.48.37-1.55,2.56-1.22,2.42.32,1.08-1.23.39-2.45-1.27-2.18,1.52-.67,2.43.6,3.8-1.15-1.05.03-1.93-.31-2.97-.07,1.32-.81,3.13.39,4.26-1.84-.98.11-1.87.53-2.88.68,6.09-5.93.23-6.23.98-8.79-.48.41-.75.83-.53,1.38-1.37-.58-3.39-.41-3.94-2.1-.13,2.41.9,2.24,2.69,2.74-.82-.1-1.64-.11-2.41-.4.16,1.08.96,1.31,1.91,1.21-.93.52-.72,1.87.23,2.33-.6-3.49,4.52-2.29,2.18.91-1.08,1.65-2.65,2.88-3.97,4.32-.25-.44-.51-.88-1.08-.82,1,1.18-.13,2.47-.4,3.69-.39,1.51.92,2.8,2.32,2.97-.56.68-.6,1.28-.17,1.83.42-2.22,3.57-1.72,3.87-4.12.05-.28.19-.5.49-.63-1.42,1.64,1.99,5.11-1.21,5.51-.46.01-.57.51-.32.85-1.33-.07-1.69.45-1.89,1.72.58-.15,1.13-.3,1.68-.44-.58,1.54-1.89-.09-1.67,2.66.54-.26,1.04-.54,1.53-.85.47,1.54-2.4.87-.24,3.34.14-.46.71-1.4,1.01-1.61-.27.77-.2,1.67.65,2.02.04-.21.07-.39.11-.57.04,0,.03,0,.07,0,.12.51.14,1.23.63,1.52.16.07.25.16.3.33.09.29.35.36.6.4.32.07.4-.3.63-.45.07.41.54.47.77.82.18-2-2.42-1.27-1.83-2.6.23.81.97.63,1.48.96.2.34.69.61.94.15.24.19.46.35.67.52-.51-2.38-1.71-.91-2.47-2.15.53.02,1.1.83,1.67.28.31.32.54.7.78,1.08.09-.76-.18-1.34-.77-1.76-.66-.41-1.56.32-2.12-.5-.77-.97-.75-2.34-.35-3.46.37-.87,1.4-1.19,1.87-2.01-.13.72-.07,1.98.74,2.22-.2-1.35.74-2.56.93-3.86.24-.33.26-.58.03-.94-.4-.67-.51-1.47-.95-2.13-.68-.98-1.53-1.01-.13-2.04-.85,1.34-.16.85.58,2.12.14-.43.76-.98-.02-.98-1.23-.62,1.6-2.22,2.24-2.26.63-.05,1.51.02,1.99-.61-.3-.58-.59-.66-.08-1.26-.34-.2-.65-.45-.71-.91-.33.12-.62.22-.96.34.31-.36,1.22-1.08,1.32-.28.02.45.46.53.8.64-.25.37-.66.74-.28,1.17.26.28.43.81.83.88.11-.42.21-.82.32-1.23.9.96-.9,1.49,1.56,2.35-.09-.52-.17-1.02-.1-1.55,1.19,1.01-.51,1.65,2.22,1.98-.3-.37-.37-.78-.49-1.19.46.08.82.52,1.12.86.28.44.49.68,1.13.25.03.08.04.18.09.22.29.22.17.5.17.79h.08c.38-.39.41-.84.29-1.33-.26-.92-1.37-.19-1.75-1.13.52.36,1.04.57,1.61.27.32.31.45.53.61.97.26-.99-.04-2.01-1.07-1.71-.32.12-.45.09-.77-.19.48.17.79-.08,1.1-.3.07.09.1.19.15.19.29.02.48.2.66.41.1-.85-.73-1.54-1.57-1.32-.21,1.04-1.07.45-1.75.31-1.06-.63-1.61-1.84-2.54-2.63.09-1.17-.86-2.1-2.01-2.03,1.03-.46,2.26.45,2.34,1.55.04.45.31.73.59,1.07,3.49-7.17,14.76-9.05,21.23-4.49h0c.55.52,1.15.94,1.72,1.48.22-.68.09-1.5,1.09-1.08l.19-.13c-.2-.58.22-1.23.81-1.28v.45c-.26.04-.46.3-.42.58.2-.04.38.22.27.4.19.11.45.06.6-.09.17,0,.33.03.5.04-.23.55-1.02.74-1.46.34h0c.09.12-.3,1.34-.31,1.48-.05.18-.21.29-.38.29.07.12.13.22.19.33.28-.16.68-.15.64-.56.05-.23-.09-1.3.23-1.21.13.41-.12.88.18,1.28.93-.24.52-1.1,1.66-1.32.45-.04,1.4-.26,1.64.19-.99-.27-2.27,0-2.48,1.16-1.03.25-1.89,1-2.99,1-.87.05-1.1,1.12-1.14,1.85-.14.84-.19,1.71-.56,2.49-.18.3-.03.64.07.92.33.18.57,1.36.62,1.78,0,.77,1.29,1.03,1.82,1.51.15-.97-1.64-.69-1.39-2.04.32.89,1.01,1.08,1.78,1.52-.24-.9-.31-2.41-1.54-2.22-.48-.68.22-.71,0-1.52.35.11.52.24.62.46-.11-.04-.21-.07-.36-.12.04.57.53.71.9,1.1-.06-.94-.14-1.53-1-1.98-.48-.45.07-1.49.04-2.12-.02-.18,1.14-.77,1.32-.72.86.11,1.76-.03,2.59.2.83.27.12-1.57,1.45-.6-.97-.29-.38.79-1.08.84-.49,0-.9-.04-1.41-.06,1.76,3.99,5.66,2.82,6.73,6.39.9-.81.29-.79.04-1.64,2.03,1.38-1.89,2.98-.42,5.39-.09-.27.83-1.4.93-1.63.17-.25.45-.27.64-.09l.29-.62c-.54-.31.44-1.61.51-1.98.1-.22.33-.33.52-.24l.27-.77c-.51-.14-.13-1.42-.17-1.77-.72-.67-1.32-1.51-1.88-2.28l.35-.06c-.04.17.02.37.17.47.25.1,1.2,1.04,1.5.82l.15.41c-.24.07-.28.41-.29.64.13.11.27.21.39.33.02-.08,0-.46.08-.52.11.15.32.15.44.03.12.06-.03.89-.02.99.14.15.27.32.4.48-.05-.38.4-1.83-.23-1.9Zm-10.21-13.47c.13-.01.24-.03.39-.04-.26-.19,0-.45.21-.27.51.4-.51,1.06-.6.31Zm-20.3,3.77l-1.07-.69.56-1.16,1.54.56-1.03,1.3Zm3.49-.9c-1.67.35-2.03-1.53-.35-1.85,1.67-.35,2.03,1.53.35,1.85Zm3.78-.15l-1.65-1.19,1.65-1.19,1.65,1.19-1.65,1.19Zm5.24-.52c-.2,1.2-2.83.68-2.58-.51.2-1.2,2.83-.68,2.58.51Zm.99.27l1.54-.56.56,1.16-1.07.69-1.03-1.3Zm12.69-5.52c.3.34.43.71.43,1.14-.29-.1-.42-.43-.43-1.14Zm-1.39,2.22c-.41.28-.77.71-1.19.14-.1.02-.18.04-.27.06.62-.97.56-.81,1.46-.19Zm-3.4,3.53c.27.1.53.25.8-.03-.26,0-.34-.19-.42-.37-.13-.92,1.34-.59,1.89-.53,1.38.86,3.72.31,2.91-1.72.64.4.42,1.52-.07,1.95-1.27.7-2.48.17-3.75,1.55-.19-.63-.93-.59-1.19.1-.24.02-.31.01-.54.03-.04-.37.25-.63.36-.97Zm4.8,6.03c-.06.07-.17.22-.17.22-1.06-1.23-4.63-2.65-6.18-2.42,0,0,.02-.18.03-.28h-.01s.59-.38.59-.38l-.5-.42c0-.06-.32-2.14-.32-2.14l.89-.03s-.32.38-.33.68c.05.04.09.09.12.15.18-.08.37-.45.37-.45l.08,1.23s-.25-.35-.42-.42c-.01.05-.03.09-.06.12.26.82,1.42.86,1.42.17-.04-.36-.43-.3-.41.08-.64-.52.22-1.34.58-.51-.05-.48,0-.75.36-.99.24.31.21.6-.05,1.07.78-.74,1.08.52.35.7.36-.66-.67-.45-.29.24.35.54,1.19.46,1.48-.13-.02-.04-.04-.07-.04-.11-.29-.06-.73.2-.73.2l.41-1.13s.17.48.42.64c.04-.04.1-.07.16-.09.05-.3-.25-.77-.25-.77l1.36.54s-.54.14-.71.39c.03.05.05.11.06.17.28.06.74-.18.74-.18l-.49,1.1s-.14-.48-.39-.64c-.03.02-.07.04-.11.05-.19.64.37,1.26.99,1.1.75-.23.15-1.1-.05-.37-.41-.64.69-1.34.74-.27.13-.52.31-.75.7-.81.1.42-.06.64-.42.96.84-.36.88.83.07.77.28-.27.03-.57-.24-.34-.49.52.42,1.26,1.13.89,0-.05.01-.09.03-.13-.18-.13-.6-.14-.6-.14l.87-.66s-.1.4-.02.61c.06-.01.13,0,.19.02.19-.19.2-.71.2-.71l.65.83s-1.63.77-1.92.99l-.45-.05.22.65h-.01Zm3.51,3.39c-.21-.02-.38.16-.31.39-.02,0-.04,0-.06-.02l-.96-.67c-.06-.04-.08-.13-.05-.2.18,0,.37-.1.35-.32.07.1,1.1.66,1.02.82Z"/>
            <path class="cls-1" d="m57.37,23.5c-.07-.09-.09-.22-.03-.31-.12-.02-.31,1.08-.35,1.14.08.08.15.15.21.23.1.03.27.09.31-.06,0,0,.25-.97.25-.97-.11.11-.3.12-.39-.03Z"/>
        </g>
        <path class="cls-1" d="m42.99,50.97c-2.7-1.09-4.67,1.58-2.46,2.03-2.42.11-1.95-3.37-2.95-3.16.88.96.88,2.76,1.68,3.26,1.63.71,3.32.82,5.06.74-.88-.8-1.09-1.8-1.33-2.86Z"/>
        <path class="cls-1" d="m51.24,52.97c2.2-.45.25-3.12-2.46-2.03-.24,1.06-.45,2.07-1.33,2.86,1.74.08,3.43-.03,5.06-.74.81-.5.81-2.29,1.68-3.26-1-.21-.53,3.27-2.95,3.16Z"/>
        <path class="cls-1" d="m68.95,31.39c0,.05.02.1.05.14.12-.11.32-.06.41.07.14-.04.09-.49.12-.59-.16-.18-.33-.35-.51-.5l-.07.9Z"/>
        <path class="cls-1" d="m68.27,34.7c.01-.13.7-1.28.52-1.38-.12.02-.27-.04-.32-.16-.17-.07-.6,1.18-.67,1.26.22-.14.49.09.42.35.02-.02.04-.04.05-.07Z"/>
        <path class="cls-1" d="m76,29.4c-.57.18-.8.66-1.01,1.2-1.42-2.26-4.12-3.83-4.53-6.59.32-2.21,3.19-1.71,2.61.6,1.49-.82.77-2.34-.63-2.61,1.53.12,2.36,1.44,3.4-.75-.9.33-2.28.1-2.75.03,1.9-.26,2.93-.24,2.87-2.65-.65,1.44-2.44,1.47-3.74,1.94.08-.64-.11-1.03-.62-1.24.52,3.52-6.02,2.37,1.16,9.96-.88-.5-1.91-.33-2.76-.88.66,1.83,1.79,1.51,3.26,2.15-1.58,0-2.07,1.56-.9,2.32-.3-1.21,1.33-2.05,2.14-1.1,1.86,2.44-1.55,5.84-4.57-.29.02.34-.21.64-.53.54l-.34.97c.69.26-.37,1.63-.44,2.02-.12.26-.39.34-.59.2l-.33.71c.42.39-.71,1.51-.83,1.85-.13.2-.36.27-.53.16l-.12.26s.04.05.05.05c.76.92,1.12,1.64.91,2.62.62-.54.9-2.05.4-2.87.56.6,1.38,1.03,1.7,1.79.32,1.39.07,2.77-.85,3.86-.39.4-.29.61-.34,1.11-.26.78-1.18.85-1.52,1.51-.24.58-.64,1.06-.82,1.67,1.04-.17.86-1.65,1.85-1.95-.4.62-.79,1.19-1.06,1.91.82-.22,2.38-.45,2.12-1.63-.2-.55.32-.91.3-1.43.65-.24.5-.51.81-1.03.14.31.15.58.13.92-.08-.17-.13-.28-.19-.4-.46.64-.08,1.26-.14,1.94,2.27-2.08-.75-2.06,1.61-6.67.54-.92-1.54-.81-1.7-2.89-.15-.9.62-1.63.79-2.49.91,1.65,4.08,1.59,3.65,3.7.64-.49.61-1.39.36-2.07,3.27-1.2.69-4.28,1.74-6.46Z"/>
        <path class="cls-1" d="m66.25,37.32c.07.03.14.08.16.16.05,0,.11-.02.15-.07.03-.08.83-1.16.74-1.23-.09-.03-.17-.09-.2-.19-.08-.08-.19-.11-.26,0-.03.14-.93,1.17-.7,1.31.04,0,.08,0,.11.02Z"/>
        <path class="cls-1" d="m65.78,37.53s.03.05.04.07v-.03s-.04-.04-.04-.04Z"/>
        <path class="cls-1" d="m34.1,42.22c.33.06.69.13,1.01-.02-.49-.86-.98-1.7-1.49-2.58-.88,1.11-2.41.43-3.37-.25-.78-.59.91-1.5.36-3.46.75,1.24-.61,2.31,1.49,3-.61-.93-.53-2.12-.76-3.18-.03-.18-.12-.36.03-.55.07-.25.09-.6-.25-.63-2.36-1.38-1.88-.71-4.17-1.03-.56,1.02.63,1.92.44,2.91-.17.49.55.47.55.94.16.74.08,1.78-.75,2.06-.41.25-.08.79.28.91-.73,1.34-.17,1.56.95,2.23,0-.52.02-.97.23-1.41,1.54,1.04-.75,1.22,2.3,2.48-.31-.52-.3-1.09-.35-1.61.29.07.57.14.86.21.33,1.44,1.1,1.57,2.44,1.44-.48-.49-.62-1.13-.97-1.63.41.14.81-.14,1.16.18Z"/>
        <path class="cls-1" d="m61.61,34.18c-.42.07-.51.25-.44.66-.47,1.03-.48,2.27-1.27,3.14,1.71-.49,1.33-1.16,1.75-2.48-.08,1.8,0,1.78.65,3.01-1.32.95-3.48.15-4.2,1.99.2.24.46,0,.73.06-.17.21-.24.46-.52.65.06-.18.1-.29.13-.4-.49-.17-.9.98-1.27,1.36,3.52-.72-.43-1.78,6.52-2.61,1.23-.59-1.16-1.51,1.25-3.07.21-.85.34-1.73.8-2.5.11-.25-.06-.61-.29-.78-1.06.76-1.56-.47-3.84.97Z"/>
        <path class="cls-1" d="m26.03,19.39c.02-.24.03-.47.05-.72-.26-.05-.51-.09-.78-.14.32-.25.71-.31,1.02-.18-.27,1.16.21,1.98,1.43,2.04.37-.57.7-.65,1.07-.25-1.61-.17-.41,1.56.41.98.22-.32.91-.6.71-1.06-1.27-.95-1.19.45-1.42-1.9-.05,0-.11,0-.16-.01-.12.45-.55.79-.9.37-.12-.14-.23-.27-.43-.31.87-.71,1.91.31,1.85-1.36.97,1.24,1.06-.14,2.02-.16-.04.99-.24.91-1.07.85.27.21,1.31,1.27.7,1.37-.25-.66-.68-1.3-1.39-1.44-.58.59-.3,1.25-.2,1.93.51-.18.95-.52,1.5-.48.18.54-.67.84-.19,1.38.83.14,1.73.14,1.47-1.06-.27-.16-.54-.28-.82.03.01-.47.46-.55.81-.46.77-.83.51-1.93-.31-2.6.22-.33.45-.55.84-.63-.13.28-.41.38-.48.64.18.23.35.44.52.65.44-.2.56-.9.24-1.62-.54.14-1.5.6-1.5.6-.47-.18-.27.05-.2.28-1.5.28-2.97.68-4.15,1.7-.21.16-.31.06-.38-.25-.14-.22-.21.16-.23.26,0,0-.9.22-1.29.56.28.47.67,1.2,1.29.96Z"/>
        <path class="cls-1" d="m31.9,18.92c.14.69-.05,1.27-.5,1.81.67,1.22,1.79,2.14,2.29,3.45,1.11-2.12-.08-2.83-1.6-3.99.98.36,1.97.7,2.52,1.66.12-1.82-.67-2.73-2.4-3.01,0-.02.01-.05.02-.07.72-.03,1.44-.03,2.11.42-.18-.56-.63-1.4-1.28-1.33.23-.5.23-.83,0-1.13-.11.35-.33.57-.68.58.08.63-.13,1.15-.46,1.62Z"/>
        <path class="cls-1" d="m26.4,23.07c.2.51.51,1.1,1.02,1.31-.26-1,.4-1.87.71-2.78,0,2.09-1.16,3.22,1.65,3.99-.75-1.23-.25-2.72-.73-3.98-.45-.26-.96-.33-1.26-.72-.08-.18-.24-.25-.4-.28-.53-.12-1.01-.3-1.28-.74-.39.12-.62.11-.97-.04-.03.45.34.89.83.72-.39.58-.17,1.11-.03,1.71.28-.6.71-.96,1.19-1.27-.37.64-1.02,1.29-.73,2.09Z"/>
        <path class="cls-1" d="m37.66,44.39c.38-.36-.14-.57-.34-.85-3.38-3.22-4.65-7.4-4.35-12.04-.08-.04-.18-.09-.35-.18-.57,4.92,1.29,9.89,5.04,13.07Z"/>
        <path class="cls-1" d="m67.88,17.64c-.32.63.61.9.62,1.5-.25-.2-.45-.37-.69-.56-.3,1.17,1.06,1.55,1.48,2.47.55-1.71.25-2.75-1.41-3.41Z"/>
        <path class="cls-1" d="m30.7,22.68c-.9.06-.77-1.1-1.03-1.74-.16.19-.3.34-.44.51.18.64.37,1.28.57,1.96.15-.11.27-.2.41-.3.63.45,1.2.14,1.4-.56.19.05.36.13.49,0-.29-.62-.58-1.21-.86-1.82-.18.04-.35-.22-.56-.02.2.57.94,1.71.03,1.97Z"/>
        <path class="cls-1" d="m67.71,14.77s0,.05-.01.08c-.28-.02-.56-.03-.86-.05.31,1.04,1.49.54,2.23,1.01-.43-.83-.73-1.64-1.72-1.8.11-.49-.02-.96-.32-1.14,0,.43-.17.75-.56.91-.19.86.68.82,1.24,1Z"/>
        <path class="cls-1" d="m67.46,20.73h-.07c-.2.93.42,1.73.81,2.51.68-1.23.65-2.62-.43-3.6-.33.65.13,1.27.29,1.89-.02,0-.04.02-.07.03-.18-.28-.35-.56-.53-.83Z"/>
        <path class="cls-1" d="m67.21,15.57c.39.94,1.01.72,1.41,1.33-.34-.11-.63-.21-.93-.31-.02,1,1.21,1.11,1.9,1.49-.11-1.62-.88-2.23-2.38-2.51Z"/>
        <path class="cls-1" d="m63.65,13.88c.42,0,1.03.28,1.38.03,0-1.37-1.62-1.19-2.55-1.21.28.51.63,1.02,1.17,1.19Z"/>
        <path class="cls-1" d="m59.01,33.35c-.35-.03-.68-.05-1.05-.09.01.19.03.33.04.49.21.05.39.1.58.15.06,1.12-.55,1.14-1.37.67-.24,1.43,2.01,1.28,1.8-1.22Z"/>
        <path class="cls-1" d="m58.23,28.79c-1.24,1.55-1.25,1.78.64,2.45-.02-.18-.03-.29-.04-.42-.37-.11-.73-.25-1.06-.48.24-.3.46-.58.69-.87-.07-.2-.14-.4-.23-.67Z"/>
        <path class="cls-1" d="m52.45,23.13c.21-.02.39-.03.57-.05.2-.76-.22-.84-.73-1.25-.21.63-.75.94-1.06,1.47.5-.04.79-.2,1.07-.6.05.15.1.29.14.43Z"/>
        <path class="cls-1" d="m55.3,26.57c.18-.5,1.11-1.73.61-2.11-.23.14-.72.08-.67.46,0,.55,0,1.09,0,1.64.02,0,.04.01.07.02Z"/>
        <path class="cls-1" d="m64.61,12.59s.04-.06.06-.08c-.53-.77-.75-.92-1.68-.93.02.93.96.93,1.62,1.01Z"/>
        <path class="cls-1" d="m62.24,10.3c-.04.65.5,1.03,1.39.98-.23-.66-.69-1.02-1.39-.98Z"/>
        <path class="cls-1" d="m60.15,17.11c-.73-.35-1.32.09-2.05-.07.21,1.03,1.41.28,2.05.07Z"/>
        <path class="cls-1" d="m61.53,9.25c.19.66.44.8,1.11.7-.21-.54-.55-.76-1.11-.7Z"/>
        <path class="cls-1" d="m61.89,8.91c-.26-.56-.39-.63-.93-.58.22.56.55.76.93.58Z"/>
        <path class="cls-1" d="m58.57,27.2c.17.3.34.6.51.89.67,0,.1-.57-.05-.81-.09-.1-.27-.1-.42-.14-.01.02-.03.04-.04.06Z"/>
        <path class="cls-1" d="m56.64,27.99c.34-.2.69-.36,1-.61-.07-.1-.13-.18-.2-.3-.29.29-.98.39-.8.9Z"/>
        <path class="cls-1" d="m61.08,8c.1-.36-.4-.83-.76-.69.05.39.45.74.76.69Z"/>
        <polygon class="cls-1" points="53.43 27.83 53.43 27.83 53.43 27.84 53.43 27.83"/>
        <path class="cls-1" d="m27.55,14.11c.18-.18-.09-.46-.27-.28-.19.18.09.47.27.28Z"/>
        <path class="cls-1" d="m27.8,14.63c.18-.18-.09-.46-.27-.28-.19.18.09.47.27.28Z"/>
        <path class="cls-1" d="m26.52,12.28h0s-.44.03-.44.03l.23.59.31-.37s.04.02.06.03c0,0,.05.79.05.79h0c.08.69,1.11.27.7-.29,0,0-.5-.6-.5-.6.01-.02.02-.04.03-.06l.47.05-.23-.59-.34.29s-.04-.02-.06-.03l-.04-.57c-.14.06-.43.17-.57.23l.36.44s-.02.04-.02.06Z"/>
        <path class="cls-1" d="m25.26,15.37c.29,0,.29-.45,0-.45-.28,0-.29.45,0,.45Z"/>
        <path class="cls-1" d="m25.21,15.95c.29,0,.29-.45,0-.45-.28,0-.29.45,0,.45Z"/>
        <path class="cls-1" d="m26.13,13.95c.29,0,.29-.45,0-.45-.28,0-.29.45,0,.45Z"/>
        <path class="cls-1" d="m25.44,14.84c.29,0,.29-.45,0-.45-.28,0-.29.45,0,.45Z"/>
        <path class="cls-1" d="m28.1,15.4c-.02-.22.14-.67.14-.67-.22.09-.68.27-.9.37,0,0,.41.21.55.38-.19.07-.37.1-.64-.02l.35.71c.08-.31.23-.5.35-.52.38.59-.56,1.25-.97.74-.12-.21.02-.44.26-.27-.04-.44-.41-.44-.52-.11,0-.45-.1-.73-.57-.86-.12.45.03.72.47.92-.25-.03-.52.22-.18.54,0-.28.24-.32.36-.12.2.53-.41.73-.9.19.11-.04.23-.02.39.01l-.47-.61c.02.22,0,.37-.03.47-.1-.12-.13-.23-.18-.46l-.36.32c.35.22.73.57,1.21,1.26.63-.63,3.17-1.72,4.15-1.68-.12-.84-.07-1.36.03-1.76l-.48.02c.13.2.17.3.18.46-.1-.04-.21-.14-.34-.32l.07.78c.09-.14.16-.23.27-.28,0,.74-.58,1.01-.79.49-.04-.23.15-.37.35-.16.04-.47-.33-.46-.49-.26.19-.45.12-.75-.27-.99-.25.42-.14.7.17,1.02-.3-.16-.57.1-.31.45.06-.3.31-.23.37,0,.05.65-1.08.84-1.2.14.1-.07.34-.04.61.13l-.22-.76c-.11.27-.26.38-.45.46Z"/>
        <path class="cls-1" d="m40,39.49c.34.2.72.42,1.06.63-.85,1.05.67,1.51.59.48.57.25,2.8.95,1.91-.41-2.93.1-4.43-3.04-2.81-5.45.99.46,4.45-1.26,4.16.49.18.2.23.21.64.21,1-2.35-2.45-1.65-3.69-1.37-1.1.33-2.12-1.32-3.1-.41-.39.35-.14,1.13.39,1.16.47.01.6-.64.18-.85.91-.31.47,1.18.14,1.56-1.04-.55-1.22,1.17-.18.72.05.31.06.61-.01.91-1.13-.25-.83,1.4.02.74.24.24.36.6.38.96-1.13.16-.23,1.65.3.65Z"/>
        <path class="cls-1" d="m43.27,41.29s-.1-.03-.16-.05c-.08.22-.2.61-.01.75,0,0,.95.42.95.42l1.22-.93.33-5-.36.03c-.1.01-.76,5.78-1.11,5.44.07-.38.88-5.44.88-5.44,0,0-.24-.03-.36-.05-.02.12-.05.27-.05.27l-1.35-1.81-.18.09,1.44,1.94-.09.34c-.13-.09-1.52-2.06-1.66-2.24l-.28-.02,1.88,2.5-.1.33-2.1-2.82h-.27s2.28,3.06,2.28,3.06l-.12.44-2.5-3.47h-.33s2.77,3.74,2.77,3.74l-.1.34-3.05-4.07-.05.31s2.84,3.81,3.02,4.06c-.15.47-.03.51.17.9.11.43-.18,1.11-.69.95Z"/>
        <path class="cls-1" d="m43.56,39.7l-2.92-3.96s-.06.19-.08.27c.22.29,2.8,3.79,2.8,3.79l.2-.1Z"/>
        <path class="cls-1" d="m40.63,37.08c.67.87,1.34,1.76,1.99,2.65.1.01.28.05.28.05l-2.38-3.23s-.04.33.11.53Z"/>
        <path class="cls-1" d="m45.72,35.61c-.32-.03-.67-.09-.98-.12-.61.55.08.86.54.82.39.11.92-.43.45-.69Z"/>
        <path class="cls-1" d="m45.62,49.72c-.1.45.59.59.68.14.1-.45-.59-.59-.68-.14Z"/>
        <path class="cls-1" d="m46.24,47.04c.12-.55-.73-.73-.84-.17-.12.55.73.73.84.17Z"/>
        <path class="cls-1" d="m43.33,45.56c.12-.55-.73-.73-.84-.17-.12.55.73.73.84.17Z"/>
        <path class="cls-1" d="m48.02,50.98c-.35,2-1.28,2.9-2.11,2.9s-1.76-.9-2.11-2.9c.11.1.21.23.33.39l.18.24.25-.16c.11-.07.21-.12.31-.16-.11.23-.15.5-.1.79.11.6.57,1.02,1.13,1.02.55,0,1.02-.42,1.13-1.02.05-.28.01-.56-.1-.79.1.04.2.1.31.16l.25.16.18-.24c.12-.16.22-.29.33-.39m.41-.54c-.49.05-.74.39-.99.73-.23-.14-.53-.29-.81-.29-.15,0-.3.04-.42.15.89.36.57,1.73-.29,1.74-.87,0-1.18-1.38-.29-1.74-.13-.11-.27-.15-.42-.15-.28,0-.58.14-.81.29-.26-.34-.51-.68-.99-.73.27,2.52,1.39,3.78,2.52,3.78s2.25-1.26,2.52-3.78h0Z"/>
        <path class="cls-1" d="m40.38,43.84c.37-.46-.93-1.05-1.13-1.31-.15-.1-.35-.07-.45.07-.37.44.91,1.04,1.09,1.29.16.13.38.11.49-.04Z"/>
        <path class="cls-1" d="m40.22,44.81c1.44,0,1.26-2.33-.17-2.08.66.36,1.23,1.33.21,1.61-.39.08-.78-.34-1.07-.55.01.57.47,1.03,1.03,1.03Z"/>
        <path class="cls-1" d="m38.17,45.2c.32.62,2.17,2.29,2.68,1.5-.91-.47-2.44-1.62-1.85-3.09-1.33-.83-.15-2.17.88-1.04,1.11-.7,2.33-.2,3.42.57.39-.86-1.51-1.46-1.95-1.72-.56-.19-2.32.22-2.92.24-.4.05-.69.42-.65.83.09.44.08,2.34.39,2.7Z"/>
        <path class="cls-1" d="m54.52,12.19l.82.27c-1.3-2.79-3.67-4.89-6.54-5.64-.07.19-.13.4-.19.62,2.51.64,4.63,2.39,5.91,4.75Z"/>
        <path class="cls-1" d="m37.58,12.46l.82-.27c1.27-2.36,3.39-4.1,5.91-4.75-.06-.22-.12-.43-.19-.62-2.86.75-5.24,2.85-6.54,5.64Z"/>
        <path class="cls-1" d="m52.64,7.94c.59,0,.59-.93,0-.92-.59,0-.59.93,0,.92Z"/>
        <path class="cls-1" d="m50.57,6.74c.59,0,.59-.93,0-.92-.59,0-.59.93,0,.92Z"/>
        <path class="cls-1" d="m49.44,6.32c.59,0,.59-.93,0-.92-.59,0-.59.93,0,.92Z"/>
        <path class="cls-1" d="m51.64,7.28c.59,0,.59-.93,0-.92-.59,0-.59.93,0,.92Z"/>
        <path class="cls-1" d="m53.57,8.71c.59,0,.59-.93,0-.92-.59,0-.59.93,0,.92Z"/>
        <path class="cls-1" d="m55.92,12.18c0,.6.91.6.9,0,0-.6-.91-.6-.9,0Z"/>
        <path class="cls-1" d="m55.37,11.1c0,.6.91.6.9,0,0-.6-.91-.6-.9,0Z"/>
        <path class="cls-1" d="m54.41,9.58c.59,0,.59-.93,0-.92-.59,0-.59.93,0,.92Z"/>
        <path class="cls-1" d="m54.71,10.07c0,.6.91.6.9,0,0-.6-.91-.6-.9,0Z"/>
        <path class="cls-1" d="m40.28,7.94c.59,0,.59-.93,0-.92-.59,0-.59.93,0,.92Z"/>
        <path class="cls-1" d="m39.35,8.71c.59,0,.59-.93,0-.92-.59,0-.59.93,0,.92Z"/>
        <path class="cls-1" d="m36.55,12.64c.59,0,.59-.93,0-.92-.59,0-.59.93,0,.92Z"/>
        <path class="cls-1" d="m41.28,7.28c.59,0,.59-.93,0-.92-.59,0-.59.93,0,.92Z"/>
        <path class="cls-1" d="m37.75,10.53c.59,0,.59-.93,0-.92-.59,0-.59.93,0,.92Z"/>
        <path class="cls-1" d="m37.1,11.56c.59,0,.59-.93,0-.92-.59,0-.59.93,0,.92Z"/>
        <path class="cls-1" d="m43.48,6.32c.59,0,.59-.93,0-.92-.59,0-.59.93,0,.92Z"/>
        <path class="cls-1" d="m38.51,9.58c.59,0,.59-.93,0-.92-.59,0-.59.93,0,.92Z"/>
        <path class="cls-1" d="m42.35,6.74c.59,0,.59-.93,0-.92-.59,0-.59.93,0,.92Z"/>
        <path class="cls-1" d="m47.24,11.03h.6c0-1.95.28-3.63.77-4.75.17-.36-.39-.62-.55-.26-.72,1.61-.83,3.82-.83,5.01Z"/>
        <path class="cls-1" d="m45.08,11.03h.6c0-1.18-.11-3.4-.83-5.01-.16-.37-.72-.1-.55.26.5,1.11.77,2.8.77,4.75Z"/>
        <path class="cls-1" d="m46.46,11.02c.64,0,.64-1.01,0-1-.64,0-.64,1.01,0,1Z"/>
        <path class="cls-1" d="m46.46,9.76c.64,0,.64-1.01,0-1-.64,0-.64,1.01,0,1Z"/>
        <path class="cls-1" d="m46.46,8.51c.64,0,.64-1.01,0-1-.64,0-.64,1.01,0,1Z"/>
        <path class="cls-1" d="m46.11,7.29c.21-.11.49-.11.69,0,.7-1.1-1.4-1.1-.69,0Z"/>
        <path class="cls-1" d="m46.85,6.23c.55-1.04-1.32-1.04-.78,0,.23-.14.55-.14.78,0Z"/>
        <path class="cls-1" d="m46.16,2.02c-.08.64-.41,1.13-.82,1.21v.16h.79s-.07.06-.1.1c-1.42.32-1.56,2.53-.21,3.05-.53-.52-.12-1.52.62-1.5.75-.03,1.15.98.62,1.5,1.36-.52,1.21-2.73-.21-3.05-.03-.04-.06-.07-.1-.1h.79v-.16c-.41-.08-.74-.57-.82-1.21.63.08,1.11.42,1.19.83h.16V.59h-.16c-.08.42-.56.75-1.19.83.08-.64.41-1.13.82-1.21V.04h-2.22v.16c.41.08.74.57.82,1.21-.63-.08-1.11-.42-1.19-.83h-.16v2.27h.16c.08-.42.56-.75,1.19-.83Z"/>
        <path class="cls-1" d="m65.78,37.53h0c-.05-.09-.1-.18-.14-.26.01.1.06.2.14.26Z"/>
        <path class="cls-1" d="m65.4,38.49c-.63-.4-.98,1.37-1.21,1.68-.11.26-.01.54.22.62l-.46.98c-.25-.04-.47.15-.47.45.09.38-.28,2.04.38,2.06v.46c-1.6.29-1.36,2.86.28,2.82,1.63.04,1.88-2.5.3-2.81v-.44c.25.04.47-.15.47-.45-.09-.37.25-1.97-.33-2.06l.35-.75c.6.33.95-1.4,1.18-1.69.11-.24.02-.52-.18-.61l.27-.57c-.07-.1-.23-.33-.38-.58l-.42.89Zm-.3,7.65c-.39,2.29-3.26.02-1.2-.94.09.22.42.23.52,0,.4.12.69.49.69.94Zm-.65-2.34c.04-.33-.37-.51-.54-.23.04-.12-.12-1.37.11-1.37.1.07.22.08.32,0,.07.01.12.08.12.17v1.34s0,.05-.02.08Zm1.21-4.53c-.07.08-.51,1.38-.66,1.33-.06-.1-.2-.17-.32-.14-.07-.03-.09-.13-.06-.21.08-.09.5-1.42.69-1.32.05.12.2.2.33.17.03.05.04.12.02.18Z"/>
        <path class="cls-1" d="m33.42,35.62l.14.55,2.49-.32-.12-.5c-.13-.03-1.68.27-1.68.27,0,0,1.48-1.76,1.44-1.97l-2.52.29.05.44c.12-.02,1.48-.21,1.48-.21,0,0-1.23,1.42-1.29,1.44Z"/>
        <path class="cls-1" d="m34.31,38.88c1.21,1.18,3.1-.71,1.85-1.92-1.21-1.19-3.13.71-1.85,1.92Zm.14-1.32c.53-.98,2.29-.4,1.56.72-.55.95-2.28.41-1.56-.72Z"/>
        <path class="cls-1" d="m35.98,41.66l.42.59c.45-.56,1.37-1.24,2.03-1.5l-.42-.59c-.16.27-.52.54-.8.74l-.65-.91c.27-.21.63-.47.94-.55l-.42-.59c-.45.56-1.37,1.24-2.03,1.5l.42.59c.16-.27.52-.54.8-.74l.65.91c-.27.21-.63.47-.93.54Z"/>
        <path class="cls-1" d="m35.75,32.78l.03-.54c-.71.14-1.86.14-2.57,0l-.03.54c.71-.14,1.86-.14,2.57,0Z"/>
        <path class="cls-1" d="m53.85,43.78c1.53-.68,1.19-2.23-.54-1.52-.72-.21.19-.96.67-.79h.01s-.36-.45-.36-.45c-.54.24-1.41.99-.95,1.62.32.42.96-.03,1.38-.02.7.13-.05.87-.48.83h0"/>
        <path class="cls-1" d="m58.03,38.37l.43-1.5c-.22.02-2.2-.57-2.38-.71l-.41,1.42.41.36h0c-.03-.33.01-.7.13-1.11l.75.22c-.07.22-.21.73-.31.86l.38.06.24-.83.72.21c-.09.28-.2.49-.36.65l.38.36Z"/>
        <path class="cls-1" d="m57.03,40.37l.23-.46-1.95-1.34-.22.42c.07.1,1.35.87,1.35.87,0,0-2.1.28-2.2.45l1.95,1.37.23-.34c-.1-.06-1.17-.78-1.17-.78,0,0,1.72-.2,1.78-.18Z"/>
        <path class="cls-1" d="m51.63,45.26l1.36-.8c-.17-.14-1.23-1.9-1.27-2.12l-1.29.76.06.54h0c.2-.26.49-.5.86-.72l.4.67c-.21.11-.66.39-.83.42l.24.3.75-.44.38.64c-.25.14-.49.22-.71.23l.04.52Z"/>
        <path class="cls-1" d="m36.46,27.71c-.41-.33-.93.26-1.34.35-.71.04-.15-.86.28-.92h0s-.34-.27-.34-.27c-.64.33-1.13,1.75-.09,1.78.22.01.78-.39.96-.43.49-.09.33.57.04.73.14,0,.3-.03.43.01.27-.39.44-.95.05-1.26Z"/>
        <path class="cls-1" d="m36.96,26.95c-1.13-.08-1.37-2.08,0-1.77v-.49c-1.78-.11-1.75,2.77,0,2.71v-.45Z"/>
        <path class="cls-1" d="m39.78,23.41s.78,0,.78,0c-.3-.48-.53-.87-.53-.87.27-.16.85-.4,1.11-.38l-.62-.48-1.89,1.16.22.74h.01c.15-.3.38-.55.64-.69.06.11.16.3.29.53Z"/>
        <path class="cls-1" d="m45.31,23.07h0c-.38.32-.86.19-1.26-.03-1.18.68-2.45-.91-1.5-1.92.99-1.21,2.97.16,2.02,1.5.31.24.56.39.75.45Zm-1.44-.39c.95-.38.13-1.87-.71-1.52-.94.37-.13,1.88.71,1.52Z"/>
        <path class="cls-1" d="m45.66,22c0-.41.05-1.15-.12-1.5h.84c-.13.39-.38,2.16.34,2.07.28,0,.56-.2.56-.5-.01-.42.05-1.2-.12-1.57h.84c-.2.67-.2,1.84,0,2.5h-.71c.02-.05.02-.13.02-.25-.73.53-1.71.26-1.64-.75Z"/>
        <path class="cls-1" d="m49.23,23.23c.15-.62.36-1.67.7-2.19l-.65-.22c0,.66-.34,1.69-.56,2.32q.25.03.52.09Z"/>
        <g>
            <path class="cls-1" d="m53.21,31.57h.42v-6.77h-6.13v6.77h5.71Zm-2.34-.2h0s0,0,0,0Zm-.62,0h0s0,0,0,0h0Zm3.17-3.48s0,0,0,0h0s0,0,0,0Zm-2.56-2.89h0s0,0,0,0h0Zm-3.16,3.49h0s0,0,0,0c0,0,0,.06,0,.07.01-.13.21-.03.11.05l.03.03c.2.02.23-.29.03-.3h0s.24-.12.24-.12v-.07l-.24-.11h0c.21-.02.18-.33-.03-.31l-.03.03c.1.09-.1.18-.11.05,0,0,0,.07,0,.08h0v-2.69h.21v-.2h2.27c.13.02.02.2-.06.11l-.03.03c-.02.2.31.22.31.01h0l.12.25h.08l.12-.25c0,.2.34.19.31-.01l-.03-.03c-.08.09-.19-.08-.06-.11,0,0,2.28,0,2.28,0v.2h.21s.08,3.3-.11,2.56l-.03-.03c-.2-.02-.23.29-.03.3h0s-.25.12-.25.12v.07l.25.11h0c-.2.02-.18.33.03.3l.03-.03c.19-.76.09,2.66.11,2.57h-.21v.2h-2.27c-.13-.02-.03-.2.06-.11l.03-.03c.02-.2-.3-.22-.31-.02h0l-.12-.24h-.08l-.11.24h0c0-.2-.33-.18-.31.02l.03.03c.09-.09.19.09.06.11,0,0-2.27,0-2.27,0v-.2h-.21v-2.69Z"/>
            <path class="cls-1" d="m54.54,31.83c0-.14-.15-.24-.28-.2v.03c-.24,1.12-.12-3.48-.15-3.31l.22.09v-.53l-.22.09v-3.39c.03-.17.29-.02.15.08v.03c.31.1.39-.4.07-.41l.2-.36-.05-.05s-.37.21-.37.2c0-.31-.52-.23-.42.07h.03c.11-.13.27.11.09.14,0,0-3.06,0-3.06,0l.09-.21h-.56l.1.21h-3.06c-.18-.03-.03-.28.08-.14h.03c.1-.3-.42-.38-.42-.07,0,0-.37-.2-.37-.2l-.05.05.2.36c-.33,0-.24.5.07.41v-.03c.24-1.12.13,3.46.15,3.3l-.22-.09v.53l.22-.09c-.02-.08.09,4.4-.15,3.31v-.03c-.31-.1-.4.4-.07.41l-.2.36.05.05s.37-.21.37-.2c0,.31.52.23.42-.07h-.03c-.05.07-.17.03-.17-.05,0-.05.04-.08.08-.09h3.07l-.1.21h.56l-.1-.21h3.06s.08.04.08.09c0,.09-.12.13-.17.05h-.03c-.1.3.42.38.42.07,0,0,.36.2.37.2l.05-.05-.2-.36c.12,0,.21-.09.21-.21Zm-3.71-7.3h3.07v7.3h-6.66v-3.67h0s0,0,0,0v-3.62h3.59Z"/>
            <path class="cls-1" d="m53.42,28.55h0s0,0,0,0Z"/>
            <path class="cls-1" d="m53.42,27.81h0s0,0,0,0Z"/>
            <path class="cls-1" d="m47.72,28.56h0s0,0,0,0Z"/>
            <path class="cls-1" d="m47.72,27.82h0s0,0,0,0Z"/>
        </g>
        <path class="cls-1" d="m25.58,15.72l.15-.12c.06-.63.35-1.18.81-1.52-.03-.04-.06-.09-.1-.12-.53.39-.84,1.05-.87,1.77Z"/>
        <path class="cls-1" d="m27.02,14.84l.14-.05c-.09-.27-.3-.76-.59-1.06-.07-.07-.18.03-.11.1.21.21.41.57.56,1.01Z"/>
        <path class="cls-1" d="m25.73,14.35c.29,0,.29-.45,0-.45-.28,0-.29.45,0,.45Z"/>
        <path class="cls-1" d="m29.91,13.38c-.2.21-.52-.1-.32-.31.19-.21.52.1.32.31Z"/>
        <path class="cls-1" d="m30.35,13.76c-.2.21-.52-.1-.32-.31.19-.21.52.1.32.31Z"/>
        <path class="cls-1" d="m28.31,13.03c-.2.21-.52-.1-.32-.31.19-.21.52.1.32.31Z"/>
        <path class="cls-1" d="m29.41,13.14c-.2.21-.52-.1-.32-.31.19-.21.52.1.32.31Z"/>
        <path class="cls-1" d="m29.93,13.87l-.19.02c-.48-.4-1.07-.58-1.64-.47,0-.05-.02-.11-.02-.16.65-.11,1.32.12,1.85.61Z"/>
        <path class="cls-1" d="m28.28,14.3l-.13.07c-.12-.26-.32-.75-.33-1.18,0-.1.15-.11.15,0,0,.3.11.7.31,1.12Z"/>
        <path class="cls-1" d="m28.87,13.02c-.2.21-.52-.1-.32-.31.19-.21.52.1.32.31Z"/>
        <path class="cls-1" d="m52.48,37.09c.64-.01,2.11-.73,1.04-1.32-.6-.1-1.2.2-1.78.33-2.32.94-.96-.21-2.41-.08.49,1.26,1.72.61,2.64.32.03.14-.14.17-.12.31.31-.07.61-.13.9-.19.13-.62,1.23-.62.73,0-1.27.57-2.77.46-4.11.85-.89,2.38-2.44.76-2.42,1.44-.35.03-.34.38.01.35,0,.69,1.72-.11,2.04-.32.08-.17.15-.32.22-.48.52.26.89-.51,1.34-.64.45-.09,1.04-.54,1.42-.13.43.48,1.07-.25,1.44.23-.14.38.04.21.11.45,0,.21.34.21.34,0,0-.09,0-.15.1-.19.19-.3-.21-.62-.36-.87-.31-.31-.83.28-1.15-.05Z"/>
        <path class="cls-1" d="m46.73,36.04c.1.03.06.16.11.22.55.04,1.1-.11,1.65-.18.41,0,.4-.37.7-.42.73.04,1.18-.62,1.87-.73.55-.16,1.29-.37,1.78.03.12.13.29.16.46.13.23-.04.51-.09.63.18-.04.04-.08.08-.13.14.02.05.05.11.08.17.11,0,.13.09.18.16.06.1.21.11.23,0,.03-.13.16-.07.2-.18.02-.34-.05-.77-.39-.94-.17-.16-.82.17-.84-.16.49.11,1.42-.54.78-.96-1.09-.26-2.28.28-3.39.4-.43.1-.22-.62-1.18-.43.62,1.32,1.95.38,2.99.37,0,.12-.2.11-.15.26.3-.1.81.07.99-.24.09-.37.87-.29.64.15-.58.38-1.44.2-2.12.28-.83.07-1.74.09-2.52.39-.15.49-.37,1-.92,1.12-.39-.39-.95.07-1.37-.32-.14.03-.16.11-.22.22-.2.08-.27.2-.06.34Z"/>
        <path class="cls-1" d="m52.86,39.5c-1.09-.14-.92.62-1.46.44.1-.12.36-.19.28-.37-.8.36-1.64.61-2.43.98-.4.44-.27,1.31-1.18,1.39-.03.45-.66.76-1.04.56-.16.15-.09.19-.06.32-.13.12-.31.4-.03.4.09-.02.16-.15.25-.11,0,.06-.01.12-.02.18.08,0,.18.03.2,0,.13-.16.3-.03.45-.15.47-.32,1.14-.62,1.1-1.29.83-.37,1.31-1.74,2.38-1.26.53.29.68-.59,1.15-.61.14.32.2.3.37.19.3.23.25-.14.37-.31.01-.17-.15-.37-.32-.36Z"/>
        <path class="cls-1" d="m47.93,34.15c-.17.5,0,1.18.46,1.46.53-.24.86-.94.68-1.53.13-.11.28-.16.23-.34-.08-.2-.39-.05-.48-.29-.2-.28-.46-.05-.62.13-.12.01-.24-.05-.35.01-.11.21.2.34.07.56Z"/>
        <path class="cls-1" d="m47.8,41.23c.51,1.25,1.28-.34,1.09-1.02.35-.3.26-.47-.17-.5-.15-.33-.48-.36-.7-.08-.08.1-.2.06-.3.08-.22.1-.1.35.09.4-.1.38-.16.76-.01,1.13Z"/>
        <path class="cls-1" d="m49.21,36.59c-.1-.06-.22-.06-.33-.05-.18-.49-.51-.3-.78-.01-.4-.16-.34.2-.13.4-.2.49-.06,1.23.45,1.44.54-.23.69-.9.66-1.45.17-.03.31-.22.12-.33Z"/>
        <path class="cls-1" d="m53.1,38.22c-.97-.33-2.51,1.83-3.15,1.19-.16-.35-.64-.31-.94-.22.37.27.57.86,1.12.67.63-.12,1.12-.64,1.66-.88.01.19-.17.27-.25.44.37-.12.71-.23.98-.47-.05-1.05,1.42-.31.01.33.25,0,.42.12.59-.09.32-.29.34-.72-.02-.98Z"/>
        <path class="cls-1" d="m50.89,40.65c-.29.07-.57.1-.75.4.07.1.14.19.21.29-.14.36-.49.3-.82.32.03.11.05.18.07.25-.14.08-.19.2-.17.38.04.01.08.03.12.04.09-.12.26-.24.3-.02.6-.2,1.13-.57,1.42-1.14-.17-.13-.32-.29-.39-.52Z"/>
        <path class="cls-1" d="m50.1,38.49c-.13,0-.15.17-.07.24.09.1.17,0,.27.02,0,.05,0,.1,0,.15.52.03,1.31-.44,1.59-.87-.11-.18-.22-.34-.32-.51-.28.09-.61.09-.78.35.1.11.19.21.29.31-.19.11-.41.29-.62.12-.08-.08-.32-.04-.26.11,0,.02,0,.05,0,.08-.04,0-.07,0-.09.01Z"/>
        <path class="cls-1" d="m47.88,41.74c-.19-.39-.5-.74-.64-1.14.17-.25.1-.56-.23-.36-.08-.17-.2-.2-.35-.16-.04.11-.07.21.05.29,0,0,0,.03,0,.05-.04.01-.07.02-.1.04-.08.21.13.34.2.5.22.37.56,1.24,1.08.78Z"/>
        <path class="cls-1" d="m47.88,35.38c-.03-.53-.63-.88-.45-1.41.05-.1.03-.22-.07-.3q-.18.05-.31-.04c-.23-.12-.26.14-.24.3-.04.02-.09.04-.15.07.16.46.63,1.61,1.21,1.37Z"/>
        <path class="cls-1" d="m46.71,37.2c.22.35.28.9.66,1.1.17,0,.44.16.54-.05-.11-.41-.61-.65-.54-1.12.02-.11-.02-.22-.11-.32-.19.06-.6-.39-.45.14-.12.04-.19.13-.11.24Z"/>
        <path class="cls-1" d="m38.07,26.52c.08,0,.17-.09.25,0,0,.04-.02.09-.02.14.53.24,1.11-.03,1.64-.18.21-.07.33-.28.56-.28.54.04.85-.43,1.32-.56.58-.11,1.16-.21,1.75-.19.68.94.8.14,1.41.46-.02.09-.03.18-.05.28.06.02.11.04.16.06-.06.23.28.37.33.07,0-.04,0-.08.04-.09.36-.2-.19-1.18-.58-.92-.2.09-.45.19-.61-.05.34-.14.75-.11.98-.43.17-.21.16-.64-.17-.75-.85-.24-1.75.2-2.61.27-1.61.45-.46-.35-1.74-.35.46,1.34,1.83.48,2.78.38-.07.16-.22.22-.29.36.34-.07.78.06,1.03-.2.13-.37.98-.41.78.09-.8.8-3.32.05-4.45.57-.17.52-.46.87-.95,1.01-.4-.25-.58.04-.98-.08-.11-.13-.22-.27-.4-.13,0,.05,0,.12,0,.19-.19-.06-.4.21-.2.33Z"/>
        <path class="cls-1" d="m39.47,24.48c-.3.56-.21,1.06.14,1.52.66.02.93-.9.82-1.46.07-.05.13-.09.2-.14-.02-.07-.04-.13-.05-.2-.12,0-.23,0-.33-.01-.24-.31-.38-.32-.67-.04q-.19-.07-.33.1c.05.1.11.18.21.23Z"/>
        <path class="cls-1" d="m42.69,25.68c-.03.16.11.22.13.34-.18.12-.37.12-.56.15-.1-.1-.14-.28-.31-.23-.1.02-.04.13-.12.17q-.19-.02-.22.18c.06.04.12.07.18.11-.14.7,1.72-.03,1.99-.24-.09-.16-.21-.26-.24-.44-.08-.31-.63-.06-.86-.04Z"/>
        <path class="cls-1" d="m39.21,25.76c-.02-.24-.08-.53-.27-.7-.21-.22-.28-.53-.06-.77-.11-.1-.25-.02-.36-.17-.14-.16-.22.02-.25.19-.38.06-.16.18-.08.39.13.36.57,1.21,1.01,1.05Z"/>
        <path class="cls-1" d="m44.83,28.37c-.2.09-.46.19-.61-.05.34-.14.76-.11.99-.43.17-.21.16-.65-.17-.76-.86-.24-1.76.2-2.63.28-1.62.45-.47-.36-1.75-.35.46,1.35,1.85.48,2.81.38-.07.16-.23.22-.29.36.34-.07.79.06,1.04-.2.13-.37.99-.41.79.09-.81.81-3.35.05-4.48.57-.17.53-.47.88-.96,1.02-.34-.22-.53-.04-.82-.05.01.1.04.19.06.29.02.1.04.2.04.3.34-.04.69-.17,1.01-.26.21-.07.33-.28.56-.28.55.04.86-.43,1.33-.56.58-.11,1.17-.21,1.77-.2.68.95.81.14,1.42.47-.02.09-.03.18-.05.28.06.02.11.04.16.06-.06.24.28.37.33.07,0-.04,0-.08.04-.09.36-.2-.2-1.19-.58-.93Z"/>
        <path class="cls-1" d="m39.38,27.53c-.3.56-.21,1.07.14,1.54.67.02.94-.9.83-1.47.07-.05.13-.1.2-.14-.02-.07-.04-.13-.05-.2-.12,0-.23,0-.34-.01-.24-.32-.39-.32-.67-.04q-.2-.08-.33.1c.05.1.11.18.21.23Z"/>
        <path class="cls-1" d="m42.63,28.74c-.03.16.11.22.14.35-.18.12-.37.12-.56.15-.1-.1-.14-.29-.32-.23-.1.02-.04.13-.12.17q-.19-.02-.22.18c.06.04.12.07.18.11-.15.7,1.73-.03,2.01-.24-.09-.16-.21-.27-.24-.45-.08-.31-.64-.06-.87-.05Z"/>
        <path class="cls-1" d="m39.12,28.82c-.02-.25-.08-.53-.27-.71-.21-.22-.28-.53-.07-.77-.11-.11-.25-.02-.36-.17-.14-.16-.22.02-.25.19-.38.06-.16.18-.08.39.13.36.58,1.22,1.02,1.06Z"/>
        <path class="cls-1" d="m44.9,31.23c-.2.09-.46.19-.61-.05.34-.14.76-.11.99-.43.17-.21.16-.64-.17-.76-.85-.24-1.76.2-2.62.28-1.62.45-.46-.35-1.75-.35.46,1.35,1.84.48,2.8.38-.07.16-.23.22-.29.36.34-.07.79.06,1.04-.2.13-.37.99-.41.79.09-.81.81-3.35.05-4.48.57-.17.53-.47.88-.96,1.02-.4-.25-.59.04-.99-.08-.04-.04-.08-.09-.12-.13-.01,0-.02-.01-.03-.02-.02-.01-.03-.02-.05-.03,0,0,0,.01,0,.02,0,.24-.05.48-.14.7.53.21,1.1-.05,1.62-.19.21-.07.33-.28.56-.28.55.04.86-.43,1.33-.56.58-.11,1.17-.21,1.77-.2.68.95.8.14,1.42.47-.02.09-.03.18-.05.28.06.02.11.04.16.06-.06.24.28.37.33.07,0-.04,0-.08.04-.09.36-.2-.19-1.18-.58-.93Z"/>
        <path class="cls-1" d="m39.45,30.4c-.3.56-.21,1.06.14,1.53.67.02.94-.9.83-1.47.07-.05.13-.09.2-.14-.02-.07-.04-.13-.05-.2-.12,0-.23,0-.33-.01-.24-.32-.39-.32-.67-.04q-.2-.08-.33.1c.05.1.11.18.21.23Z"/>
        <path class="cls-1" d="m42.7,31.6c-.03.16.11.22.14.35-.18.12-.37.12-.56.15-.1-.1-.14-.29-.31-.23-.1.02-.04.13-.12.17q-.19-.02-.22.18c.06.04.12.07.18.11-.15.7,1.73-.03,2.01-.24-.09-.16-.21-.27-.24-.45-.08-.31-.63-.06-.86-.04Z"/>
        <path class="cls-1" d="m38.92,30.99s-.08-.09-.1-.13c-.01.13.05.27.03.4-.02.1-.04.24-.07.34.15.15.25.17.41.11-.02-.25-.08-.53-.27-.7Z"/>
        <path class="cls-1" d="m48.66,26.05c.15.09.26.53.34.59.17.22.51.82.86.7h0c.1-.05.2-.35.2-.39,0-.01-.06-.07-.12-.12-.32-.28-.51-.57-.52-.83-.01-.09.18-.2.17-.28,0-.3-.25.04-.34-.01-.05-.09-.23-.33-.34-.21-.07.03.02.21-.04.25-.03.03-.04.04-.12.04-.26,0-.29.16-.08.26Z"/>
        <path class="cls-1" d="m50.03,28.06c.09-.09.34-.34.37-.4.03-.06.03-.06.22-.08.5-.07.75-.28.89-.83.07-.16-.02-.52-.12-.6-.04-.03-.06-.08-.03-.1.09-.01.29-.09.32-.2-.05-.11-.18-.03-.36-.08-.13-.06-.47-.17-.61-.09-.1.12-.68.14-.58.31.02.07.06.22.06.22l.27.03v.2s-.19.04-.25.06c-.16.24.38.26.52.07.1-.11.25-.13.24,0-.07.16-.33.24-.48.31-.22.04-.28.49-.46.64-.49.09-.66.08-1.15-.32-.18-.21-.32-.05-.18.11-.09.03-.54-.23-.33.21l.03.04c-.22.33.11.21.29.32.39.16.83.28,1.33.19Z"/>
        <path class="cls-1" d="m51.59,27.74l.21.44s.45.2.51.26c.25.19.21.7-.02.65-.37-.15-.59-.69-.85-1.02-.07-.05-.24-.59-.36-.46-1.53.35.28.75,0,1.33-.05.08-.22.49-.15.55.13.16.42.28.57.48.25.25.02.53-.28.3-.17-.13-.38.06-.2.24.01.03-.11.09-.13.1-.18.25.12.24.28.11.09-.04,0,.22.15.18.28-.06.71-.21.79-.65.17-.41-.23-.34-.33-.7-.1-.15-.11-.68.11-.49.2.26.47.41.72.18.23-.22.02-.75-.1-.99-.22-.47-.48-.92-.46-1.48.31-.37.67.29.89-.75-.72.05-1.43.54-1.08,1.37.22.47.17.43-.26.34Z"/>
        <path class="cls-1" d="m50.43,28.62c-.38-.02-.67-.05-.57.41.02.11.06.45.13.53.03.04.02.09-.01.12-.15.09-.74-.15-.67-.36,0-.17-.16-.21-.21-.09-.03.05-.07.05-.13-.01-.11-.16-.26.06-.2.17.02.05,0,.1-.06.11-.16.07-.15.29.07.3.49.23.91.47,1.48.39h0c.62-.05.3-.17.27-.6-.11-.47.68-.78-.09-.96Z"/>
        <path class="cls-1" d="m51.01,35.36s-.14,0-.15.03c0,.21-.22.15-.28.3.04.09.11.16.2.15.12-.01.11.14.22.15.51-.24,1.11-.18,1.54-.58-.16-.14-.2-.33-.24-.54-.29.02-.58-.02-.83.12-.03.14.07.21.13.33-.21.09-.39.14-.59.05Z"/>
        <path class="cls-1" d="m59.15,29.52c-.2-.44-.66-2.89-1.34-2.36,3.07,5.85,1.02,13.55-4.31,17.26-1.56.96-3.5,2.56-5.35,1.5,1.19-4.75,6.91-2.74,8.16-11.8-.15-.08-.21-.12-.35-.15-.18,1.27-.49,2.48-.95,3.65.5-1.35.18-5.57.27-5.8-.05-.07-.11-.1-.27-.31.03.51,0,.69,0,1.37h-8.68v-9.25h8.52v5.22s.03.28.05.37c.12-.19.13-.18.21-.25v-5.61h-17.87l-.02,4.73h.26v-4.46h8.57v9.25h-8.27s0-.15-.02-.12c0-.03-.06.15-.06.12h-.23c0-.43,0-.7,0-.71h-.26c-.19.68.37,6.48,1.31,7.5-1.87-1.85-2.45-5.13-2.1-7.6,0,0-.17-.14-.36-.32-.59,3.48.7,6.91,3.09,9.4.21.23.44-.02.69-.08-.05-.06-.16-.14-.24-.25.09.1.18.19.24.25l-.13-.37c-1.87-1.46-2.18-5.64-2.22-7.56h8.57s0,11.59-.01,11.62c-1.82-.09-3.06-2.11-4.82-2.13,2.53,1.53,7.15,5.22,10.08,3.6.02.03.02.02.04.05-.31.39-1.39,1.14-1.87.95-.8-.49-2.02.4-1.46,1.31.07.11.12.2.03.34-3.16-.3-6-2.23-8.66-3.88-.03.03-.02.02-.05.05,1.02,1.41,4.67,3.16,4.67,3.16v2.09s.23.16.38.26v-2.26c.96.34,2.89.96,2.89.96v1.41s.37-.24.37-.24l-.02-1.06.52-.15c.33-.09.53-.41.49-.75-.15-.08-.26-.24-.21-.46.08-.41.56-.42.76-.17.4.18.78-.31,1.17-.42.55-.34,1.23-.64,1.48-1.29.05-.16.13-.26.27-.34,1.11-.64,2.18-1.35,3.09-2.28,3.87-3.34,5.22-9.08,3.93-13.99Zm-12.82,3.63h8.68c.71,6.77-3.18,9.04-8.68,11.4v-11.4Zm.16,12.1c.61-.56,1.04-.75,1.83-.94-.22.5-.43.98-.65,1.48-.4-.18-.79-.36-1.18-.54Z"/>
        <g>
            <path class="cls-1" d="m27.11,48.98c-.2-.12-.44-.16-.74-.12.06.45.22,1.28.35,1.72.82-.12,1.06-1.16.39-1.6Z"/>
            <path class="cls-1" d="m38.27,45.9h0c-4.91,0-9.81,2.15-14.72,2.15-.59,0-1.18-.03-1.77-.1,1.52,1.23,1.42,3.69,3.63,3.69.1,0,.2,0,.3-.01,3.01-.33,6-1.19,8.96-1.68.51-.08,2.96-.69,4.4-.69.52,0,.9.08,1.02.29.16.29-.82,1.13-.83,1.16,0,0,0,.01.01.01.09,0,.64-.32,1.04-.59,1.6-1.18-1.76-4.24-2.04-4.24Zm-10.35,4.16c-.27.65-1.07.8-1.69.91.03-.2-.35-2.08-.47-2.25,1.08-.47,2.63-.02,2.16,1.34Zm.63.4c.03-.65-.18-1.67-.47-2.25l.63-.14c-.03.65.18,1.67.47,2.25l-.63.14Zm2.41-.53l-1.29.29c.03-.2-.39-2.04-.5-2.21l1.36-.31-.11.46c-.19-.05-.41-.06-.66,0l.15.67.75-.17.12.33c-.15-.02-.6.09-.81.13l.16.7c.37-.08.67-.21.92-.38h0s-.1.49-.1.49Zm1.32-.21c-.94.02-1.07-1.35-1.29-2.02l.45-.09c.22.59.16,1.96,1.12,1.78.7-.32.13-1.45.06-2l.45-.06c.17.91.57,2.48-.79,2.39Zm3.73-.68l-1.28.3c.02-.2-.41-2.04-.52-2.2l1.35-.32-.11.46c-.19-.05-.41-.05-.66,0l.16.67.75-.18.12.32c-.15-.02-.6.1-.81.13l.16.7c.37-.09.67-.21.91-.38h0s-.09.49-.09.49Zm1.35-2.24l.37,1.91-.43.08-.38-1.9c-.26.05-.41.05-.77.21v-.43s1.84-.24,1.84-.24l.13.36c-.17-.06-.76.01-.76.01Z"/>
        </g>
        <g>
            <path class="cls-1" d="m61.03,48.02c-.1.42-.27,1.21-.32,1.64.96.21,1.26-1.44.32-1.64Z"/>
            <path class="cls-1" d="m64.81,48.69c-.74-.19-.98,1.38-.36,1.63.75.18.98-1.38.36-1.63Z"/>
            <path class="cls-1" d="m62.89,48.39l-.22.83c.63.12.9-.73.22-.83Z"/>
            <path class="cls-1" d="m56.98,47.2c-.77-.22-1.07,1.41-.42,1.68.79.21,1.07-1.4.42-1.68Z"/>
            <path class="cls-1" d="m67.97,48.04c-.62,0-1.2,0-1.49-.03-3.24-.32-6.45-1.27-9.68-1.79-.93-.15-1.7-.29-2.36-.29-1.37,0-2.31.61-3.41,3.01-.47.91,1.11,1.79,1.45,1.82-1.3-1.13-.84-1.47.18-1.47,1.41,0,3.92.64,4.41.7,2.96.48,5.96,1.35,8.96,1.68.11,0,.21.01.3.01,2.21,0,2.11-2.46,3.63-3.69-.27.03-1.17.04-2.01.04Zm-12.19-1.33c-.07.07-.34,1.95-.32,2.13l-.49-.1c.09-.16.21-1.47.21-1.47l-.85,1.35-.5-1.52s-.2,1.09-.21,1.44l-.49-.07c.16-.26.46-2.19.46-2.19l.5.1c.01.1.39,1.41.39,1.41,0,0,.67-1.14.71-1.2l.59.11h0Zm1.82,1.66c-.45,1.54-2.18.7-1.67-.67.44-1.49,2.18-.7,1.67.67Zm1.71,1.35c-.15-.03-.97-1.74-.97-1.74,0,0-.2,1.33-.25,1.42l-.37-.05.43-2.08.41.06c0,.05.65,1.46.65,1.46,0,0,.22-1.14.24-1.24l.32.09-.45,2.09Zm1.94.18c-.29.1-.71-.01-1.02-.07l.41-2.15c1.36-.09,1.93,1.71.61,2.22Zm2.42-.99c-.06.24-.24.41-.53.5.13.42.2.56.41,1.02h0s-.33-.04-.33-.04c-.07-.04-.48-.63-.61-.96-.07.27-.15.6-.12.84l-.56-.09c.1-.17.54-1.92.53-2.11.49.06,1.36.15,1.2.83Zm1.08,1.7c-1.25.24-1.25-1.92-.25-2.22,1.25-.27,1.26,1.92.25,2.22Zm1.3-1.26c-.05.38-.22,1.16-.15,1.52l-.49-.07c.21-.56.36-1.51.33-2.12l.49.07c-.08.17-.14.37-.17.6Zm1.15-.09s-.29,1.65-.27,1.79l-.49-.09s.3-1.45.37-1.77c-.17-.04-.38-.02-.57.06h0s.19-.42.19-.42l1.32.24.09.46c-.11-.11-.47-.24-.66-.27Z"/>
        </g>
    </g>
</svg>
