<?xml version="1.0" encoding="utf-8"?>
<!DOCTYPE svg PUBLIC "-//W3C//DTD SVG 1.1//EN" "http://www.w3.org/Graphics/SVG/1.1/DTD/svg11.dtd">
<svg version="1.1" xmlns="http://www.w3.org/2000/svg" x="0px" y="0px" width="50px" height="50px"
	 viewBox="2 2 46 46" enable-background="new 0 0 50 50" xml:space="preserve">
	<path fill="#FFFFFF" d="M17.1,23.7c0-3.4,2.8-6.2,6.2-6.2c3.4,0,6.2,2.8,6.2,6.2c0,3.4-2.8,6.2-6.2,6.2
		C19.9,30,17.1,27.2,17.1,23.7 M36.6,33.4l-5.3-4.9c0.8-1.4,1.3-3,1.3-4.7c0-5.1-4.2-9.3-9.3-9.3c-5.1,0-9.3,4.2-9.3,9.3
		s4.2,9.3,9.3,9.3c1.7,0,3.4-0.5,4.7-1.3l5.3,4.9L36.6,33.4z"/>
</svg>
